<svg version="1.1" viewBox="0.0 0.0 960.0 720.0" fill="none" stroke="none" stroke-linecap="square" stroke-miterlimit="10" xmlns:xlink="http://www.w3.org/1999/xlink" xmlns="http://www.w3.org/2000/svg"><clipPath id="p.0"><path d="m0 0l960.0 0l0 720.0l-960.0 0l0 -720.0z" clip-rule="nonzero"/></clipPath><g clip-path="url(#p.0)"><path fill="#000000" fill-opacity="0.0" d="m0 0l960.0 0l0 720.0l-960.0 0z" fill-rule="evenodd"/><path fill="#e08c3e" d="m88.666145 434.37814l131.03937 -122.58267l131.03935 122.58267l-131.03935 122.58267z" fill-rule="evenodd"/><path fill="#e3a559" d="m91.49606 400.614l-91.49606 -148.72441l207.37007 59.87401z" fill-rule="evenodd"/><path fill="#e3a559" d="m349.04987 398.41492l86.078735 -139.93698l-191.55905 59.08661z" fill-rule="evenodd"/><path fill="#d9762b" d="m219.71678 494.33554l25.35434 25.35434l-25.35434 25.35431l-25.354324 -25.35431z" fill-rule="evenodd"/><path fill="#000000" fill-opacity="0.0" d="m371.00525 372.40945l631.46454 0l0 169.66928l-631.46454 0z" fill-rule="evenodd"/><path fill="#2b1403" d="m384.349 413.7776l64.234375 0l0 24.671875l-34.84375 0l0 7.5625l24.671875 0l0 22.203125l-24.671875 0l0 32.234375l-29.390625 0l0 -86.671875zm94.98016 88.53125q-18.359375 0 -28.59375 -8.1875q-10.21875 -8.1875 -10.21875 -23.1875q0 -14.75 9.234375 -23.296875q9.25 -8.5625 26.609375 -8.5625q11.03125 0 18.90625 4.09375q7.875 4.078125 11.90625 11.15625q4.03125 7.0625 4.03125 15.875l0 8.046875l-44.15625 0q3.59375 6.453125 16.25 6.453125q5.828125 0 12.203125 -0.921875q6.390625 -0.9375 10.859375 -2.671875l0 16.734375q-4.953125 1.984375 -12.21875 3.21875q-7.25 1.25 -14.8125 1.25zm5.578125 -39.3125q-1.484375 -6.1875 -9.046875 -6.1875q-7.3125 0 -8.8125 6.1875l17.859375 0zm32.493774 -22.0625l26.90625 0l0 4.953125q3.71875 -3.21875 8.671875 -5.015625q4.96875 -1.796875 10.421875 -1.796875q13.015625 0 19.03125 6.515625q6.015625 6.5 6.015625 18.03125l0 36.828125l-27.90625 0l0 -32.734375q0 -3.46875 -1.421875 -5.265625q-1.421875 -1.796875 -4.640625 -1.796875q-6.078125 0 -9.1875 5.578125l0 34.21875l-27.890625 0l0 -59.515625zm79.11206 0l26.90625 0l0 4.953125q3.71875 -3.21875 8.671875 -5.015625q4.96875 -1.796875 10.421875 -1.796875q13.015625 0 19.03125 6.515625q6.015625 6.5 6.015625 18.03125l0 36.828125l-27.90625 0l0 -32.734375q0 -3.46875 -1.421875 -5.265625q-1.421875 -1.796875 -4.640625 -1.796875q-6.078125 0 -9.1875 5.578125l0 34.21875l-27.890625 0l0 -59.515625zm83.951416 -2.484375l-22.203125 0l0 -24.671875l73.78125 0l0 24.671875l-22.203125 0l0 62.0l-29.375 0l0 -62.0zm77.98883 63.859375q-18.359375 0 -28.59375 -8.1875q-10.21875 -8.1875 -10.21875 -23.1875q0 -14.75 9.234375 -23.296875q9.25 -8.5625 26.609375 -8.5625q11.03125 0 18.90625 4.09375q7.875 4.078125 11.90625 11.15625q4.03125 7.0625 4.03125 15.875l0 8.046875l-44.15625 0q3.59375 6.453125 16.25 6.453125q5.828125 0 12.203125 -0.921875q6.390625 -0.9375 10.859375 -2.671875l0 16.734375q-4.953125 1.984375 -12.21875 3.21875q-7.25 1.25 -14.8125 1.25zm5.578125 -39.3125q-1.484375 -6.1875 -9.046875 -6.1875q-7.3125 0 -8.8125 6.1875l17.859375 0zm66.087524 39.3125q-16.859375 0 -26.46875 -8.125q-9.609375 -8.125 -9.609375 -23.5q0 -15.375 9.609375 -23.484375q9.609375 -8.125 26.46875 -8.125q7.6875 0 14.875 1.421875q7.203125 1.421875 11.546875 4.03125l0 21.328125q-3.71875 -2.734375 -8.875 -4.21875q-5.140625 -1.484375 -10.46875 -1.484375q-6.453125 0 -10.359375 2.734375q-3.90625 2.71875 -3.90625 7.796875q0 5.21875 3.90625 7.890625q3.90625 2.65625 10.359375 2.65625q5.203125 0 10.46875 -1.546875q5.28125 -1.546875 9.484375 -4.40625l0 21.328125q-4.453125 2.609375 -11.65625 4.15625q-7.1875 1.546875 -15.375 1.546875zm33.24231 -93.5l27.890625 0l0 36.703125q8.0625 -6.4375 18.109375 -6.4375q13.015625 0 19.03125 6.515625q6.015625 6.5 6.015625 18.03125l0 36.828125l-27.90625 0l0 -32.734375q0 -3.46875 -1.421875 -5.265625q-1.421875 -1.796875 -4.640625 -1.796875q-6.078125 0 -9.1875 5.578125l0 34.21875l-27.890625 0l0 -91.640625z" fill-rule="nonzero"/></g></svg>